<?xml version="1.0" encoding="UTF-8" standalone="no"?>
<svg
   xmlns:dc="http://purl.org/dc/elements/1.1/"
   xmlns:cc="http://creativecommons.org/ns#"
   xmlns:rdf="http://www.w3.org/1999/02/22-rdf-syntax-ns#"
   xmlns:svg="http://www.w3.org/2000/svg"
   xmlns="http://www.w3.org/2000/svg"
   xmlns:xlink="http://www.w3.org/1999/xlink"
   xmlns:sodipodi="http://sodipodi.sourceforge.net/DTD/sodipodi-0.dtd"
   xmlns:inkscape="http://www.inkscape.org/namespaces/inkscape"
   id="Layer_1"
   data-name="Layer 1"
   viewBox="0 0 128 128"
   version="1.1"
   sodipodi:docname="itu-discord-logo.svg"
   width="128"
   height="128"
   inkscape:version="0.92.4 (5da689c313, 2019-01-14)"
   inkscape:export-filename="D:\OneDrive\Dokumenty\Vysoká Škola\ITU\Projekt repo\draft\itu-discord-logo.png"
   inkscape:export-xdpi="96"
   inkscape:export-ydpi="96">
  <metadata
     id="metadata19">
    <rdf:RDF>
      <cc:Work
         rdf:about="">
        <dc:format>image/svg+xml</dc:format>
        <dc:type
           rdf:resource="http://purl.org/dc/dcmitype/StillImage" />
        <dc:title>itu-discord-logo</dc:title>
      </cc:Work>
    </rdf:RDF>
  </metadata>
  <sodipodi:namedview
     pagecolor="#ffffff"
     bordercolor="#666666"
     borderopacity="1"
     objecttolerance="10"
     gridtolerance="10"
     guidetolerance="10"
     inkscape:pageopacity="0"
     inkscape:pageshadow="2"
     inkscape:window-width="1920"
     inkscape:window-height="1137"
     id="namedview17"
     showgrid="false"
     inkscape:zoom="3.6875"
     inkscape:cx="46.35382"
     inkscape:cy="47.809781"
     inkscape:window-x="-8"
     inkscape:window-y="-8"
     inkscape:window-maximized="1"
     inkscape:current-layer="Layer_1"
     showguides="true"
     inkscape:guide-bbox="true">
    <sodipodi:guide
       position="3.661017,64"
       orientation="0,1"
       id="guide4819"
       inkscape:locked="false" />
    <sodipodi:guide
       position="64,66.101695"
       orientation="1,0"
       id="guide4821"
       inkscape:locked="false" />
  </sodipodi:namedview>
  <defs
     id="defs4">
    <linearGradient
       inkscape:collect="always"
       id="linearGradient4601">
      <stop
         style="stop-color:#6440ff;stop-opacity:1"
         offset="0"
         id="stop4597" />
      <stop
         style="stop-color:#235aff;stop-opacity:0"
         offset="1"
         id="stop4599" />
    </linearGradient>
    <linearGradient
       id="linearGradient4559-9"
       inkscape:collect="always">
      <stop
         id="stop4563"
         offset="0"
         style="stop-color:#ff494e;stop-opacity:1" />
      <stop
         id="stop4565"
         offset="1"
         style="stop-color:#235aff;stop-opacity:0" />
    </linearGradient>
    <style
       id="style2">.cls-1{fill:#2b374f;}</style>
    <radialGradient
       inkscape:collect="always"
       xlink:href="#linearGradient4559-9"
       id="radialGradient4561"
       cx="96.081017"
       cy="13.061906"
       fx="96.081017"
       fy="13.061906"
       r="64"
       gradientUnits="userSpaceOnUse"
       gradientTransform="matrix(6.5835785,2.5379482,-0.83610751,2.1689089,-512.95616,-263.40496)" />
    <radialGradient
       inkscape:collect="always"
       xlink:href="#linearGradient4601"
       id="radialGradient4561-0"
       cx="83.86512"
       cy="46.453346"
       fx="83.86512"
       fy="46.453346"
       r="64"
       gradientUnits="userSpaceOnUse"
       gradientTransform="matrix(2.7094715,2.9933726,-1.723352,1.5599037,-146.83824,-273.30885)" />
    <filter
       style="color-interpolation-filters:sRGB;"
       inkscape:label="Drop Shadow"
       id="filter4817">
      <feFlood
         flood-opacity="0.498039"
         flood-color="rgb(0,0,0)"
         result="flood"
         id="feFlood4807" />
      <feComposite
         in="flood"
         in2="SourceGraphic"
         operator="in"
         result="composite1"
         id="feComposite4809" />
      <feGaussianBlur
         in="composite1"
         stdDeviation="0"
         result="blur"
         id="feGaussianBlur4811" />
      <feOffset
         dx="9.63542"
         dy="7.8"
         result="offset"
         id="feOffset4813" />
      <feComposite
         in="SourceGraphic"
         in2="offset"
         operator="over"
         result="composite2"
         id="feComposite4815" />
    </filter>
    <linearGradient
       gradientTransform="translate(-4.8292981e-5,4.6236458e-4)"
       inkscape:collect="always"
       xlink:href="#linearGradient4559-9"
       id="linearGradient848-9"
       x1="115.16564"
       y1="14.837025"
       x2="42.812088"
       y2="110.96725"
       gradientUnits="userSpaceOnUse" />
  </defs>
  <title
     id="title6">itu-discord-logo</title>
  <rect
     style="fill:url(#radialGradient4561-0);fill-opacity:1"
     id="rect4553-3"
     width="128"
     height="128"
     x="0"
     y="0" />
  <rect
     style="fill:url(#radialGradient4561);fill-opacity:1"
     id="rect4553"
     width="128"
     height="128"
     x="0"
     y="0" />
  <circle
     style="fill:none;stroke-width:0.16666666;stroke:none;stroke-opacity:1"
     id="path3732"
     cx="64"
     cy="64"
     r="64" />
  <g
     id="g3730"
     transform="matrix(0.1750971,0,0,0.1750971,21.073445,-26.994066)"
     style="fill:#ffffff;fill-opacity:1;stroke:none;stroke-opacity:1;filter:url(#filter4817)"
     inkscape:export-xdpi="96"
     inkscape:export-ydpi="96">
    <path
       style="fill:#ffffff;fill-opacity:1;stroke:none;stroke-width:0.17509709;stroke-opacity:1"
       d="M 81.033203 28.115234 L 72.578125 36.566406 A 35.639264 35.639264 0 0 0 56.933594 32.958984 C 37.159878 32.958984 21.074219 49.044644 21.074219 68.818359 C 21.074219 88.592075 37.159878 104.67969 56.933594 104.67969 C 76.707309 104.67969 92.792969 88.592075 92.792969 68.818359 A 35.639264 35.639264 0 0 0 89.185547 53.173828 L 97.642578 44.726562 L 90.853516 37.935547 A 8.9159443 8.9159443 0 0 1 97.275391 35.201172 A 2.2412429 2.2412429 0 0 0 97.275391 30.71875 A 13.372166 13.372166 0 0 0 87.6875 34.769531 L 81.033203 28.115234 z M 78.052734 68.648438 C 79.26479 68.724525 80.448942 69.289307 81.263672 70.324219 C 81.757327 70.951284 82.054845 71.658268 82.193359 72.537109 C 82.321819 73.352176 82.060384 74.641527 81.316406 76.869141 C 79.249065 83.059162 75.72339 87.944266 71.119141 91.001953 C 68.286637 92.883021 65.193399 94.011751 61.369141 94.558594 C 60.105185 94.739331 56.674599 94.815387 55.28125 94.693359 C 52.814559 94.477329 50.058813 93.926803 49.035156 93.445312 C 45.853166 91.948623 45.61705 87.536481 48.617188 85.642578 C 49.666797 84.979989 50.909153 84.858906 52.564453 85.257812 C 57.121641 86.356036 61.862766 85.952867 65.240234 84.179688 C 68.893896 82.261506 71.852548 77.985918 73.353516 72.460938 C 73.712877 71.138148 73.998392 70.589498 74.675781 69.912109 C 75.601439 68.986452 76.840678 68.57235 78.052734 68.648438 z "
       transform="matrix(5.7111169,0,0,5.7111169,-120.35291,154.16627)"
       id="path8" />
    <path
       style="fill:#ffffff;fill-opacity:1;stroke:none;stroke-opacity:1"
       inkscape:connector-curvature="0"
       id="path10"
       d="m 499.2,329.6 h -25.6 a 12.8,12.8 0 0 0 0,25.6 h 25.6 a 12.8,12.8 0 1 0 0,-25.6 z"
       class="cls-1" />
    <path
       style="fill:#ffffff;fill-opacity:1;stroke:none;stroke-opacity:1"
       inkscape:connector-curvature="0"
       id="path12"
       d="m 460.8,316.8 a 12.76,12.76 0 0 0 9.05,-3.75 l 19.2,-19.2 a 12.8,12.8 0 1 0 -18.1,-18.1 l -19.2,19.2 a 12.8,12.8 0 0 0 9.05,21.85 z"
       class="cls-1" />
    <path
       style="fill:#ffffff;fill-opacity:1;stroke:none;stroke-opacity:1"
       inkscape:connector-curvature="0"
       id="path14"
       d="m 469.85,371.75 a 12.8,12.8 0 0 0 -18.1,18.1 l 19.2,19.2 a 12.8,12.8 0 0 0 18.1,-18.1 z"
       class="cls-1" />
  </g>
</svg>
